<?xml version="1.0" encoding="utf-8"?>
<!-- Generator: Adobe Illustrator 21.0.0, SVG Export Plug-In . SVG Version: 6.00 Build 0)  -->
<svg version="1.1" id="Laag_1" xmlns="http://www.w3.org/2000/svg" xmlns:xlink="http://www.w3.org/1999/xlink" x="0px" y="0px"
	 viewBox="0 0 42 42" style="enable-background:new 0 0 42 42;" xml:space="preserve">
<g id="HbKWC7.tif">
	<g>
		<g>
			<path d="M23.7,39.6H16V22.8h-3.8c-0.5,0-0.7-0.2-0.7-0.7v-5.8c0-0.5,0.2-0.7,0.7-0.7h3.9l0-2c0-0.7,0.1-1.5,0.2-2.2
				c0.1-0.7,0.2-1.3,0.4-2l0.1-0.4c0.5-1.6,1.2-2.9,2-3.8c0.5-0.6,1.3-1.2,2.3-1.7c0.7-0.3,1.4-0.5,2.2-0.7c0.5-0.1,1-0.2,1.6-0.2
				c0.2,0,0.5,0,0.7-0.1c1.3-0.1,2.7-0.1,4,0l1.2,0l-0.4,0.7c0,0.1-0.1,0.1-0.1,0.1l0,0v5.8c0,0.5-0.2,0.7-0.7,0.7
				c-0.3,0-0.7,0-1.1,0c-1-0.1-2-0.1-3.1,0.2c-0.5,0.2-1.3,0.6-1.6,1.5l0,0.2c-0.1,0.3-0.1,0.5-0.1,0.8c0,0.6,0,1.1,0,1.7
				c0,0.5,0,0.9,0,1.4l6.1,0c0.5,0,0.7,0.2,0.7,0.7v5.8c0,0.5-0.2,0.7-0.7,0.7h-6.1L23.7,39.6z M17,38.6h5.7V22.5
				c0-0.5,0.2-0.7,0.7-0.7h6.1l0-5.2l-6.1,0c-0.5,0-0.7-0.2-0.7-0.7c0-0.6,0-1.1,0-1.7c0-0.6,0-1.1,0-1.7c0-0.4,0.1-0.7,0.2-1
				l0.1-0.2c0.3-1,1.1-1.8,2.2-2.2c1.2-0.3,2.4-0.3,3.5-0.3c0.2,0,0.5,0,0.7,0l0-5.4c-1.2-0.1-2.5-0.1-3.7,0c-0.2,0-0.5,0.1-0.7,0.1
				c-0.5,0-0.9,0.1-1.4,0.2c-0.8,0.2-1.4,0.4-2,0.7c-0.9,0.5-1.6,0.9-2,1.5c-0.8,0.8-1.4,2-1.8,3.4l-0.1,0.4
				c-0.2,0.6-0.3,1.2-0.4,1.8c-0.1,0.7-0.2,1.4-0.2,2v2.3c0,0.5-0.2,0.7-0.7,0.7h-3.9l0,5.2l3.9,0c0.4,0,0.6,0.2,0.6,0.6V38.6z"/>
		</g>
	</g>
</g>
</svg>
