<?xml version="1.0" encoding="utf-8"?>
<!-- Generator: Adobe Illustrator 21.0.0, SVG Export Plug-In . SVG Version: 6.00 Build 0)  -->
<svg version="1.1" id="Laag_1" xmlns="http://www.w3.org/2000/svg" xmlns:xlink="http://www.w3.org/1999/xlink" x="0px" y="0px"
	 viewBox="0 0 42 42" style="enable-background:new 0 0 42 42;" xml:space="preserve">
<g id="_x35_92u79.tif">
	<g>
		<g>
			<path d="M15.4,36H13c-0.6,0-1.3-0.1-1.9-0.2C10,35.6,8.9,35.4,7.8,35c-1.7-0.5-3.4-1.3-4.9-2.3c-0.2-0.1-0.4-0.3-0.4-0.6v-0.6
				L3,31.6c2,0.2,3.9,0,5.5-0.5c1.4-0.4,2.7-1,3.9-1.8c-0.6-0.1-1.2-0.3-1.8-0.6c-1-0.4-1.8-1.1-2.6-1.9c-0.6-0.4-1.3-2-1.4-2.5
				l-0.1-0.7l0.7,0.1c0.3,0.1,0.6,0.1,0.9,0.1c-2.9-1.6-4.3-4.5-4.1-7L4.1,16l0.7,0.4c0.5,0.3,0.9,0.5,1.4,0.5c0,0,0,0,0.1,0
				c-2.7-2.8-2.7-6.8-1.1-9.4l0.4-0.6L6,7.5c1.9,2.3,4,4,6.6,5.4c2.4,1.2,5,1.9,7.6,2.1c0-0.1,0-0.2,0-0.3c-0.1-1,0-1.9,0.2-2.7
				c0.7-3.2,3.5-5.7,6.8-6l1.4,0c0.3,0,0.6,0,0.8,0.1c1.3,0.2,2.6,0.8,3.8,1.8c0.1,0.1,0.2,0.1,0.2,0.2c0.1,0.1,0.1,0.1,0.2,0.2
				c1.3-0.3,2.7-0.8,4-1.6l0.9-2.6V7c0,0.1,0,0.2-0.1,0.3c-0.4,1.2-1,2.1-1.8,2.9c0.7-0.2,1.4-0.4,2-0.7l0.2,0
				c-0.2,0-0.3,0.1-0.4,0.3l0.1-0.1l0.3,0.3h0.6v0.3l-0.2,0.2c-0.8,1.2-1.8,2.2-2.8,3c-0.2,0.1-0.3,0.2-0.4,0.3
				c-0.1,0.1-0.1,0.1-0.2,0.2c0,1,0,2-0.1,2.9c-0.1,0.9-0.2,1.9-0.5,2.7c-0.8,3.4-2.4,6.4-4.6,9c-2,2.4-4.4,4.2-7.1,5.4
				c-2.5,1.2-5.2,1.8-8,1.9H15.4z M4.8,32.7c1,0.6,2.1,1,3.2,1.3c1.1,0.4,2.1,0.6,3.2,0.8c0.6,0.1,1.2,0.2,1.7,0.2h2.5
				c2.7-0.1,5.2-0.7,7.6-1.9c2.6-1.1,4.8-2.9,6.7-5.2c2.1-2.5,3.6-5.4,4.4-8.7c0.3-0.8,0.4-1.7,0.5-2.5c0.1-0.9,0.1-1.9,0.1-2.8
				v-0.5l0.2-0.1c0.1-0.1,0.3-0.2,0.4-0.3c0.1-0.1,0.3-0.2,0.4-0.3c0.6-0.5,1.2-1,1.7-1.6c-0.6,0.2-1.3,0.3-2.1,0.5l-2.2,0l1.5-0.9
				c1-0.6,1.8-1.4,2.4-2.4c-1.1,0.5-2.2,0.9-3.3,1.1l-0.3,0.1L33,9c0,0-0.1-0.1-0.2-0.2c-0.1-0.1-0.2-0.1-0.2-0.2
				c-1-0.8-2.2-1.4-3.3-1.6l-0.1,0c-0.1,0-0.2,0-0.4,0h-1.4c-2.8,0.3-5.3,2.4-5.9,5.2c-0.2,1-0.3,1.7-0.2,2.4c0,0.1,0,0.2,0,0.3
				c0,0.2,0.1,0.3,0.1,0.4V16l-0.5,0c-2.9-0.1-5.9-0.9-8.6-2.3c-2.5-1.3-4.6-3-6.5-5.1C4.5,11.3,5,15,8.1,17.2l0.7,0.5L8.1,18
				c-0.4,0.2-1.6,0-2.1-0.2c-0.3,0-0.6-0.1-0.9-0.3c0.2,2.2,1.8,5.1,5.4,6l2.2,0.5l-2.2,0.4c-1.1,0.2-1.7,0.2-2.5,0.2
				c0.2,0.5,0.6,1.1,0.9,1.3c0.7,0.8,1.5,1.4,2.3,1.7c1,0.4,1.9,0.7,2.7,0.7h1.4l-1.1,0.9c-1.6,1.3-3.4,2.2-5.3,2.7
				C7.6,32.5,6.3,32.7,4.8,32.7z"/>
		</g>
	</g>
</g>
</svg>
