<?xml version="1.0" encoding="utf-8"?>
<!-- Generator: Adobe Illustrator 21.0.0, SVG Export Plug-In . SVG Version: 6.00 Build 0)  -->
<svg version="1.1" id="Laag_1" xmlns="http://www.w3.org/2000/svg" xmlns:xlink="http://www.w3.org/1999/xlink" x="0px" y="0px"
	 viewBox="0 0 42 42" style="enable-background:new 0 0 42 42;" xml:space="preserve">
<g id="IEbfqx.tif">
	<g>
		<g>
			<path d="M40.2,39.6h-9.1V26.1c0-0.6,0-1.2-0.1-1.7c-0.1-0.6-0.3-1.1-0.5-1.5c-0.4-0.7-0.9-1.2-1.4-1.4c-0.4-0.2-0.8-0.3-1.2-0.3
				c-0.5,0-1,0-1.4,0.1c-0.7,0.2-1.4,0.6-1.9,1.3c-0.4,0.4-0.6,1-0.8,1.6c-0.1,0.4-0.1,0.7-0.1,1.2v14.1l-0.5,0.1
				c-2.5-0.1-5.2-0.1-7.9-0.1h-0.5V14.2h9.1v2.3c0.2-0.3,0.5-0.5,0.8-0.8c1-0.9,2.1-1.4,3.5-1.8c1.1-0.2,2-0.3,3-0.2c0,0,0,0,0,0
				c0.8,0,1.7,0.2,2.8,0.5c2.2,0.7,3.9,2.1,5.1,4.3c0.5,1,0.8,2,1.1,3.1l0,0.3c0.1,0.5,0.2,1,0.2,1.5V39.6z M32.1,38.6h7.1V23.5
				c0-0.5-0.1-0.9-0.2-1.4l0-0.2c-0.2-1.1-0.5-2-1-2.9c-1.1-2-2.5-3.2-4.5-3.8c-1-0.3-1.8-0.5-2.5-0.5c-0.9-0.1-1.7,0-2.7,0.2
				c-1.2,0.3-2.2,0.8-3.1,1.6c-0.6,0.5-1,1-1.4,1.7l-0.2,0.2l-0.9,0.8v-4h-7.1v23.3c2.3,0,4.7,0,6.9,0.1V25.4c0-0.5,0-1,0.1-1.5
				c0.3-0.8,0.6-1.4,1-1.9c0.6-0.8,1.5-1.5,2.5-1.7c0.6-0.1,1.1-0.1,1.6-0.1c0.6,0,1.2,0.1,1.6,0.4c1,0.4,1.6,1.2,1.9,1.8
				c0.3,0.5,0.5,1.2,0.7,1.9c0.1,0.6,0.1,1.3,0.1,1.9V38.6z"/>
		</g>
		<g>
			<path d="M2.7,39.5H2.2V14.2h9.1v25.2l-0.5,0C8.1,39.5,5.4,39.5,2.7,39.5z M3.2,15.2v23.3c2.3,0,4.7,0,7.1-0.1V15.2H3.2z"/>
		</g>
		<g>
			<path d="M6.9,11.9c-0.7,0-1.7-0.1-2.5-0.6C3,10.7,2.1,9.5,1.9,8.1l0-0.1c0-0.1-0.1-0.2-0.1-0.4V6.8c0-0.1,0-0.3,0.1-0.4l0-0.1
				c0.2-1.1,0.7-2,1.6-2.7c0.6-0.5,1.4-0.8,2.3-1C5.9,2.6,6,2.5,6.3,2.5h0.9c0.1,0,0.4,0,0.6,0.1c0.9,0.1,1.7,0.5,2.3,1
				c0.8,0.7,1.4,1.5,1.6,2.5c0.2,1.1,0.2,2.1-0.2,3c-0.5,1.2-1.4,2-2.7,2.5C8.1,11.8,7.5,11.9,6.9,11.9z M6.5,3.5L6.5,3.5L6.1,3.6
				C5.3,3.7,4.6,4,4.1,4.4C3.5,4.9,3.1,5.6,2.9,6.5c0,0,0,0.2-0.1,0.3l0,0.8C2.9,7.7,2.9,7.9,2.9,8c0.2,1,0.8,1.9,1.9,2.5
				c0.5,0.3,1.2,0.4,2.1,0.4c0.5,0,1-0.1,1.5-0.3c1-0.4,1.7-1,2.1-1.9c0.3-0.7,0.4-1.5,0.2-2.4C10.5,5.6,10.2,5,9.5,4.4
				C9,4,8.3,3.7,7.5,3.6l-0.2,0L7.3,3.5c0,0,0,0-0.1,0H6.5z"/>
		</g>
	</g>
</g>
</svg>
